<?xml version="1.0" encoding="UTF-8"?>
<svg version="1.1" xmlns="http://www.w3.org/2000/svg" width="1893" height="890">
<path d="M0 0 C624.69 0 1249.38 0 1893 0 C1893 293.7 1893 587.4 1893 890 C1268.31 890 643.62 890 0 890 C0 596.3 0 302.6 0 0 Z " fill="#ACAFB3" transform="translate(0,0)"/>
<path d="M0 0 C0.82565498 -0.00581376 1.65130995 -0.01162753 2.50198478 -0.01761746 C5.28689115 -0.03229188 8.07092642 -0.01829775 10.85582733 -0.00457001 C12.86521117 -0.00917598 14.87459164 -0.01552684 16.88396502 -0.02347898 C22.41986267 -0.04023709 27.95548587 -0.03189652 33.49138474 -0.01953411 C39.45601946 -0.0105124 45.4206058 -0.02443901 51.38523102 -0.0354538 C62.39930094 -0.05224356 73.41328893 -0.05074481 84.42736207 -0.03980792 C94.60148903 -0.02975443 104.77558376 -0.02711481 114.94971466 -0.0318985 C115.62401008 -0.03220404 116.29830551 -0.03250958 116.99303413 -0.03282438 C119.73006726 -0.03406969 122.46710038 -0.03534328 125.20413348 -0.03666343 C150.8911815 -0.04890551 176.57817352 -0.03779597 202.2652129 -0.01627585 C225.09765312 0.00270726 247.93000411 0.00100878 270.76244354 -0.01811981 C296.40184318 -0.03952811 322.04119331 -0.04803739 347.68060064 -0.03567076 C350.4127105 -0.03438784 353.14482036 -0.03313649 355.87693024 -0.0318985 C356.54966883 -0.03158219 357.22240742 -0.03126588 357.91553203 -0.03093999 C368.08445119 -0.02638586 378.25333462 -0.03171906 388.42224884 -0.04181671 C399.98222266 -0.05323828 411.5420962 -0.05004136 423.10205805 -0.02869374 C429.00426889 -0.01815476 434.90629827 -0.01410991 440.80850792 -0.02729034 C446.20575196 -0.03916116 451.60264539 -0.03273972 456.99985737 -0.01138014 C458.95806973 -0.00689146 460.91631138 -0.00923067 462.8745051 -0.01888329 C465.52564628 -0.03095478 468.17556861 -0.01866728 470.8266449 0 C471.59630968 -0.00936466 472.36597447 -0.01872933 473.15896243 -0.02837777 C476.405677 0.0176719 478.58973944 0.3074127 481.38762867 2.00172794 C483.5788879 5.59467328 483.46087269 8.94969914 483.41110039 13.03291512 C483.41631496 13.90644375 483.42152953 14.77997238 483.42690212 15.67997158 C483.43956553 18.62770854 483.4235382 21.57460354 483.40779877 24.52231598 C483.41097323 26.64861823 483.41589872 28.77491847 483.42243159 30.90121305 C483.43529878 36.76022258 483.42309157 42.61895712 483.40690303 48.47794867 C483.39377943 54.79018656 483.40363929 61.10239294 483.41066742 67.4146347 C483.41959889 78.35681272 483.41378553 89.2988882 483.3973732 100.24105453 C483.38015877 111.72028736 483.37033254 123.19948368 483.37070847 134.67873001 C483.3707314 135.74883509 483.3707314 135.74883509 483.3707548 136.84055845 C483.37083662 139.73628857 483.37096783 142.63201869 483.37116643 145.5277488 C483.37297945 172.7037364 483.35307527 199.87966828 483.3223071 227.05563654 C483.29505259 251.21725712 483.28258473 275.37883812 483.28392792 299.54047394 C483.28400874 301.09211133 483.28408946 302.64374873 483.28417008 304.19538613 C483.28421078 304.96247469 483.28425148 305.72956326 483.28429341 306.51989694 C483.28449499 310.38105294 483.28467616 314.24220894 483.28483391 318.10336494 C483.28486733 318.86505806 483.28490076 319.62675117 483.2849352 320.41152589 C483.28566498 340.58298597 483.27659448 360.75444107 483.26418078 380.925897 C483.26374024 381.64310383 483.26329969 382.36031066 483.2628458 383.09925104 C483.26106927 385.98350046 483.2592925 388.86774989 483.25746389 391.75199928 C483.2511366 401.80013058 483.24812442 411.84825796 483.24724091 421.89639111 C483.24604847 434.84156428 483.23786763 447.78669635 483.21837799 460.73185708 C483.20911643 466.97806556 483.20306039 473.22423363 483.20556641 479.47044945 C483.20774597 485.17960202 483.20078464 490.888665 483.18626936 496.59779887 C483.18262325 498.67172221 483.18240083 500.74565473 483.18580393 502.81957848 C483.18989539 505.62165953 483.18187549 508.42344144 483.17059135 511.22549629 C483.17470199 512.04533678 483.17881263 512.86517726 483.18304783 513.7098614 C483.14163235 519.27505466 483.14163235 519.27505466 480.91332245 521.50336456 C478.24294909 521.70058874 475.67628135 521.77104528 473.00468445 521.75504684 C472.17398447 521.75795373 471.3432845 521.76086061 470.4874118 521.76385558 C467.67354047 521.77121751 464.85988301 521.7641836 462.04601288 521.75733185 C460.02043403 521.75963384 457.99485602 521.76280859 455.96927977 521.76678634 C450.37946447 521.77517898 444.78971697 521.7709889 439.19990134 521.7648139 C433.18075065 521.76030859 427.16161202 521.76726358 421.14246368 521.77277374 C410.02455266 521.781174 398.9066604 521.78041655 387.78874923 521.77495081 C377.51919037 521.76992669 367.24963949 521.76860302 356.98007965 521.77099609 C355.95967684 521.77122525 355.95967684 521.77122525 354.91865983 521.77145903 C352.15747381 521.77208167 349.39628779 521.77271847 346.63510178 521.77337856 C320.71434152 521.77950143 294.79359512 521.77394192 268.872837 521.76318477 C245.8259406 521.75369302 222.77906631 521.75454225 199.7321701 521.76410675 C173.85988987 521.77480781 147.9876219 521.77906726 122.11533976 521.77288222 C119.35908159 521.77224075 116.60282342 521.77161508 113.84656525 521.77099609 C113.16786621 521.77083794 112.48916717 521.77067978 111.78990149 521.77051684 C101.52488103 521.7682385 91.2598694 521.77090875 80.99485016 521.7759552 C69.32720275 521.78166248 57.65957639 521.78007473 45.99193132 521.76939371 C40.03332052 521.76411964 34.0747547 521.76210961 28.11614418 521.76869202 C22.6696763 521.77461789 17.2232954 521.77143246 11.7768355 521.76073691 C9.79840798 521.75848851 7.81997322 521.75967104 5.84155029 521.76448849 C3.16824671 521.77050248 0.49524766 521.76440152 -2.17803955 521.75504684 C-2.95994744 521.75972918 -3.74185533 521.76441151 -4.5474574 521.76923573 C-9.85837681 521.73166531 -9.85837681 521.73166531 -12.08667755 519.50336456 C-12.28586809 516.71155237 -12.35795142 514.01869714 -12.34394646 511.22549629 C-12.34745253 510.35487454 -12.35095861 509.48425279 -12.35457093 508.58724856 C-12.36395673 505.63756394 -12.35894325 502.68807365 -12.35410309 499.73838043 C-12.35783574 497.61523125 -12.36243571 495.49208345 -12.36783373 493.36893785 C-12.38012679 487.50935288 -12.37979589 481.64982473 -12.37744498 475.7902298 C-12.3770384 469.48064534 -12.38806071 463.17107949 -12.39756012 456.8615036 C-12.41420553 444.49047167 -12.41969712 432.11946265 -12.42078488 419.74842097 C-12.42170287 409.69748812 -12.42581384 399.64656148 -12.43218613 389.59563065 C-12.43398113 386.70571944 -12.43576076 383.81580822 -12.43753588 380.925897 C-12.43797798 380.20751912 -12.43842007 379.48914123 -12.43887557 378.74899432 C-12.45118932 358.53378512 -12.45907615 338.31857806 -12.45818901 318.10336494 C-12.45815785 317.34072482 -12.4581267 316.57808469 -12.45809459 315.79233425 C-12.45792837 311.92668488 -12.45773029 308.0610355 -12.45752518 304.19538613 C-12.45748529 303.42761167 -12.4574454 302.65983721 -12.4574043 301.86879686 C-12.45732342 300.31616884 -12.45723983 298.76354081 -12.45715352 297.21091279 C-12.45592775 273.0495836 -12.47094362 248.88831051 -12.49829865 224.72699738 C-12.52899685 197.60144205 -12.54623251 170.47592359 -12.5443722 143.35034978 C-12.54422293 140.45980986 -12.54412552 137.56926994 -12.54406357 134.67873001 C-12.54404026 133.96697021 -12.54401695 133.2552104 -12.54399294 132.52188212 C-12.5439313 121.05047983 -12.55672198 109.57912612 -12.5739281 98.10773828 C-12.59085354 86.58543056 -12.59253856 75.06321921 -12.57970946 63.5409012 C-12.57315354 57.29440545 -12.57315678 51.04808637 -12.59041595 44.80160713 C-12.60603626 39.08973007 -12.60339694 33.37817138 -12.58584769 27.66630261 C-12.58275328 25.59362522 -12.58650084 23.52092472 -12.59756784 21.44827457 C-12.61156256 18.64276247 -12.60120289 15.83838685 -12.58445549 13.03291512 C-12.59439185 12.21775696 -12.60432821 11.40259881 -12.61456567 10.5627389 C-12.5717837 7.200711 -12.32712459 4.89761873 -10.56098378 2.00172794 C-7.09279711 -0.09849871 -3.93605701 -0.04789079 0 0 Z " fill="#C7D1DC" transform="translate(719.0866775512695,192.49663543701172)"/>
<path d="M0 0 C0.69563008 -0.00290688 1.39126016 -0.00581376 2.10796994 -0.00880873 C4.46238305 -0.01616589 6.81654019 -0.00913904 9.17095184 -0.002285 C10.86654688 -0.00458718 12.56214093 -0.00776207 14.25773287 -0.01173949 C18.93542666 -0.02012953 23.6130394 -0.01594324 28.29073358 -0.00976706 C33.32828094 -0.00526068 38.36581391 -0.01221726 43.40335846 -0.0177269 C53.27914505 -0.02664203 63.15490132 -0.02468948 73.03068912 -0.01890162 C81.05360659 -0.01439344 89.07651553 -0.01376855 97.0994339 -0.01594925 C98.23925894 -0.01625572 99.37908399 -0.01656218 100.55344918 -0.01687793 C102.86864166 -0.01751735 105.18383413 -0.01816578 107.4990266 -0.01882312 C129.23254744 -0.02453262 150.96605144 -0.01795881 172.69956952 -0.00722238 C191.36691862 0.00171369 210.03424284 0.00016182 228.70159149 -0.00905991 C250.35485542 -0.0197516 272.00810456 -0.02398324 293.66137075 -0.01783538 C295.9682703 -0.01719825 298.27516985 -0.01656951 300.5820694 -0.01594925 C301.71724732 -0.0156407 302.85242524 -0.01533215 304.02200249 -0.01501425 C312.03963784 -0.013284 320.05726386 -0.01620949 328.07489777 -0.02090836 C337.83946363 -0.02650498 347.60399732 -0.02502651 357.36855948 -0.01434687 C362.3550453 -0.00907368 367.34147739 -0.00706128 372.32796288 -0.01364517 C376.88623393 -0.01957286 381.44440107 -0.01638259 386.0026626 -0.00569007 C387.65807728 -0.00344244 389.31350061 -0.00462251 390.9689098 -0.00944164 C393.20656856 -0.01545975 395.44386403 -0.00935059 397.6815033 0 C399.55151859 0.00048706 399.55151859 0.00048706 401.45931196 0.00098395 C404.34075165 0.25168228 404.34075165 0.25168228 406.34075165 2.25168228 C406.59471893 4.9843483 406.59471893 4.9843483 406.59954071 8.50558853 C406.60584503 9.82035172 406.61214935 11.1351149 406.61864471 12.48971939 C406.61506505 13.93120838 406.61096311 15.37269615 406.60637665 16.81418228 C406.60772333 18.28626952 406.60966388 19.75835633 406.61217499 21.23044205 C406.61512614 24.31731776 406.61082896 27.40407781 406.60149384 30.49094009 C406.59009921 34.45240357 406.59665874 38.41359606 406.60863876 42.37504959 C406.61585765 45.41531805 406.61356932 48.45552201 406.60838318 51.49579239 C406.60704676 52.95666918 406.60869415 54.41755178 406.61334229 55.87842178 C406.61840771 57.91820543 406.60932144 59.95800954 406.59954071 61.99777603 C406.59794952 63.15978531 406.59635834 64.32179459 406.59471893 65.51901627 C406.34075165 68.25168228 406.34075165 68.25168228 404.34075165 70.25168228 C401.45931196 70.50238061 401.45931196 70.50238061 397.6815033 70.50336456 C396.98587322 70.50627144 396.29024314 70.50917833 395.57353336 70.5121733 C393.21912024 70.51953046 390.8649631 70.5125036 388.51055145 70.50564957 C386.81495641 70.50795175 385.11936237 70.51112663 383.42377043 70.51510406 C378.74607664 70.52349409 374.0684639 70.5193078 369.39076972 70.51313162 C364.35322235 70.50862525 359.31568939 70.51558183 354.27814484 70.52109146 C344.40235825 70.53000659 334.52660198 70.52805404 324.65081418 70.52226618 C316.62789671 70.51775801 308.60498777 70.51713311 300.5820694 70.51931381 C298.87233183 70.51977351 298.87233183 70.51977351 297.12805411 70.5202425 C294.81286164 70.52088192 292.49766917 70.52153034 290.1824767 70.52218768 C268.44895586 70.52789718 246.71545185 70.52132337 224.98193377 70.51058695 C206.31458468 70.50165088 187.64726045 70.50320274 168.9799118 70.51242447 C147.32664788 70.52311616 125.67339874 70.5273478 104.02013254 70.52119994 C101.713233 70.52056281 99.40633345 70.51993407 97.0994339 70.51931381 C95.96425598 70.51900526 94.82907806 70.51869671 93.65950081 70.51837881 C85.64186545 70.51664856 77.62423944 70.51957406 69.60660553 70.52427292 C59.84203966 70.52986955 50.07750597 70.52839107 40.31294382 70.51771143 C35.32645799 70.51243824 30.3400259 70.51042584 25.35354042 70.51700974 C20.79526937 70.52293742 16.23710222 70.51974715 11.6788407 70.50905463 C10.02342602 70.50680701 8.36800269 70.50798707 6.7125935 70.51280621 C4.47493474 70.51882432 2.23763927 70.51271515 0 70.50336456 C-1.24667686 70.50303986 -2.49335372 70.50271515 -3.77780867 70.50238061 C-6.65924835 70.25168228 -6.65924835 70.25168228 -8.65924835 68.25168228 C-8.91321564 65.51901627 -8.91321564 65.51901627 -8.91803741 61.99777603 C-8.92434174 60.68301285 -8.93064606 59.36824966 -8.93714142 58.01364517 C-8.93356175 56.57215619 -8.92945982 55.13066842 -8.92487335 53.68918228 C-8.92622003 52.21709504 -8.92816058 50.74500823 -8.93067169 49.27292252 C-8.93362285 46.18604681 -8.92932567 43.09928675 -8.91999054 40.01242447 C-8.90859591 36.05096099 -8.91515545 32.0897685 -8.92713547 28.12831497 C-8.93435436 25.08804651 -8.93206603 22.04784255 -8.92687988 19.00757217 C-8.92554346 17.54669539 -8.92719085 16.08581279 -8.93183899 14.62494278 C-8.93690441 12.58515913 -8.92781814 10.54535502 -8.91803741 8.50558853 C-8.91565063 6.76257462 -8.91565063 6.76257462 -8.91321564 4.9843483 C-8.38350723 -0.71526832 -4.83786885 0.00126005 0 0 Z " fill="#ACBBCB" transform="translate(755.6592483520508,312.74831771850586)"/>
<path d="M0 0 C0.69563008 -0.00290688 1.39126016 -0.00581376 2.10796994 -0.00880873 C4.46238305 -0.01616589 6.81654019 -0.00913904 9.17095184 -0.002285 C10.86654688 -0.00458718 12.56214093 -0.00776207 14.25773287 -0.01173949 C18.93542666 -0.02012953 23.6130394 -0.01594324 28.29073358 -0.00976706 C33.32828094 -0.00526068 38.36581391 -0.01221726 43.40335846 -0.0177269 C53.27914505 -0.02664203 63.15490132 -0.02468948 73.03068912 -0.01890162 C81.05360659 -0.01439344 89.07651553 -0.01376855 97.0994339 -0.01594925 C98.23925894 -0.01625572 99.37908399 -0.01656218 100.55344918 -0.01687793 C102.86864166 -0.01751735 105.18383413 -0.01816578 107.4990266 -0.01882312 C129.23254744 -0.02453262 150.96605144 -0.01795881 172.69956952 -0.00722238 C191.36691862 0.00171369 210.03424284 0.00016182 228.70159149 -0.00905991 C250.35485542 -0.0197516 272.00810456 -0.02398324 293.66137075 -0.01783538 C295.9682703 -0.01719825 298.27516985 -0.01656951 300.5820694 -0.01594925 C301.71724732 -0.0156407 302.85242524 -0.01533215 304.02200249 -0.01501425 C312.03963784 -0.013284 320.05726386 -0.01620949 328.07489777 -0.02090836 C337.83946363 -0.02650498 347.60399732 -0.02502651 357.36855948 -0.01434687 C362.3550453 -0.00907368 367.34147739 -0.00706128 372.32796288 -0.01364517 C376.88623393 -0.01957286 381.44440107 -0.01638259 386.0026626 -0.00569007 C387.65807728 -0.00344244 389.31350061 -0.00462251 390.9689098 -0.00944164 C393.20656856 -0.01545975 395.44386403 -0.00935059 397.6815033 0 C399.55151859 0.00048706 399.55151859 0.00048706 401.45931196 0.00098395 C404.34075165 0.25168228 404.34075165 0.25168228 406.34075165 2.25168228 C406.60144806 4.9396553 406.60144806 4.9396553 406.61540985 8.39792252 C406.62494186 9.68943726 406.63447388 10.980952 406.64429474 12.31160355 C406.64403332 13.72782798 406.6430963 15.14405243 406.6415329 16.56027603 C406.64541847 18.007548 406.64975285 19.45481883 406.65451813 20.90208817 C406.66198638 23.93768381 406.66168485 26.97316316 406.65642548 30.00876236 C406.65063146 33.90071635 406.66755675 37.79219436 406.69077015 41.68406963 C406.70549599 44.67377383 406.70638076 47.66336311 406.70326042 50.65309715 C406.70377427 52.08803691 406.70902389 53.52298299 406.71907234 54.95788765 C406.73139506 56.96390409 406.72271735 58.97001644 406.7130661 60.97604752 C406.71369553 62.11807129 406.71432495 63.26009506 406.71497345 64.43672562 C406.34075165 67.25168228 406.34075165 67.25168228 405.23912954 68.90402186 C402.38920692 70.92718486 400.06180849 70.62784264 396.59248352 70.6292057 C395.55282215 70.63574619 395.55282215 70.63574619 394.49215752 70.6424188 C392.15222768 70.65343242 389.81288007 70.6429251 387.4729538 70.63263321 C385.78545627 70.63608737 384.097961 70.6408503 382.41047049 70.64681494 C377.75973575 70.65938784 373.10918469 70.65312611 368.45844913 70.64385629 C363.44815979 70.63709177 358.4379029 70.64753408 353.42761993 70.65579605 C343.60710224 70.66916343 333.78665318 70.6662423 323.96613276 70.65755813 C315.98758099 70.65079378 308.0090485 70.64985944 300.03049469 70.65312958 C298.89664458 70.65358928 297.76279447 70.65404898 296.59458527 70.65452261 C294.29147406 70.65548174 291.98836285 70.65645438 289.68525165 70.65744038 C268.06900352 70.66600308 246.45279349 70.65614636 224.83655161 70.64003928 C206.27299112 70.62663531 187.7094869 70.62896315 169.14592743 70.64279556 C147.60910378 70.65883586 126.07231358 70.66517902 104.53548479 70.65595877 C102.2406594 70.65500308 99.94583401 70.65405997 97.65100861 70.65312958 C96.52179461 70.65266675 95.39258061 70.65220392 94.229148 70.65172707 C86.25655002 70.64913253 78.28397318 70.65351817 70.31137848 70.66056824 C60.60064912 70.66896623 50.88999255 70.66673902 41.17927158 70.65072601 C36.22098589 70.64282032 31.26282172 70.63979063 26.30453682 70.64967346 C21.770878 70.65857352 17.23745404 70.6537655 12.70381671 70.63774081 C11.0585096 70.634373 9.41318289 70.63613154 7.76788825 70.64336817 C5.54131165 70.65241478 3.31555274 70.64321277 1.08901978 70.6292057 C-0.15065977 70.62871865 -1.39033931 70.62823159 -2.6675849 70.62772977 C-5.65924835 70.25168228 -5.65924835 70.25168228 -7.55762625 68.90402186 C-9.2824262 66.31696845 -9.03325856 64.05280769 -9.03156281 60.97604752 C-9.04090599 59.03404716 -9.04090599 59.03404716 -9.05043793 57.05281448 C-9.04175077 55.63863108 -9.03243289 54.22445144 -9.0225296 52.81027603 C-9.02201099 51.36203894 -9.02252872 49.91380113 -9.02404022 48.46556473 C-9.02395053 45.43167984 -9.01352551 42.39806084 -8.99542999 39.36423111 C-8.97272244 35.47115793 -8.97220256 31.57847258 -8.97894764 27.68535137 C-8.9822851 24.69568292 -8.97566213 21.70610327 -8.96581841 18.71645164 C-8.96196376 17.28069968 -8.96081928 15.84493785 -8.96240425 14.40918159 C-8.96277413 12.40540609 -8.948695 10.40164349 -8.93390656 8.39792252 C-8.92929916 7.25669434 -8.92469177 6.11546616 -8.91994476 4.9396553 C-8.3708156 -0.72227297 -4.79986171 0.00125015 0 0 Z " fill="#C3CDD9" transform="translate(755.6592483520508,412.74831771850586)"/>
<path d="M0 0 C0.69310758 -0.00436032 1.38621516 -0.00872064 2.100326 -0.0132131 C4.44025584 -0.02422672 6.77960345 -0.0137194 9.11952972 -0.00342751 C10.80702725 -0.00688167 12.49452252 -0.0116446 14.18201303 -0.01760924 C18.83274777 -0.03018214 23.48329883 -0.02392041 28.1340344 -0.01465058 C33.14432373 -0.00788607 38.15458062 -0.01832837 43.16486359 -0.02659035 C52.98538128 -0.03995773 62.80583034 -0.03703659 72.62635076 -0.02835242 C80.60490253 -0.02158808 88.58343502 -0.02065373 96.56198883 -0.02392387 C97.69583894 -0.02438357 98.82968905 -0.02484327 99.99789825 -0.0253169 C102.30100946 -0.02627604 104.60412067 -0.02724868 106.90723187 -0.02823468 C128.52348 -0.03679737 150.13969003 -0.02694065 171.75593191 -0.01083358 C190.3194924 0.0025704 208.88299662 0.00024255 227.44655609 -0.01358986 C248.98337974 -0.02963015 270.52016994 -0.03597332 292.05699873 -0.02675307 C294.35182412 -0.02579738 296.64664951 -0.02485427 298.94147491 -0.02392387 C300.63529591 -0.02322963 300.63529591 -0.02322963 302.36333552 -0.02252137 C310.3359335 -0.01992682 318.30851034 -0.02431246 326.28110504 -0.03136253 C335.9918344 -0.03976053 345.70249097 -0.03753331 355.41321194 -0.0215203 C360.37149763 -0.01361461 365.3296618 -0.01058493 370.2879467 -0.02046776 C374.82160552 -0.02936782 379.35502948 -0.02455979 383.88866681 -0.0085351 C385.53397392 -0.0051673 387.17930063 -0.00692583 388.82459527 -0.01416247 C391.05117187 -0.02320908 393.27693078 -0.01400706 395.50346375 0 C396.74314329 0.00048706 397.98282283 0.00097411 399.26006842 0.00147593 C402.25173187 0.37752342 402.25173187 0.37752342 404.14923716 1.6533159 C406.17720392 4.82488261 405.67625251 8.66390391 405.65016937 12.31502342 C405.65303955 13.19150536 405.65590973 14.06798729 405.65886688 14.97102928 C405.66090786 16.8236563 405.65537565 18.67630485 405.64284515 20.52889061 C405.62679171 23.36694521 405.64269242 26.20357569 405.66188812 29.04158592 C405.6599057 30.84106824 405.65606203 32.64054966 405.65016937 34.44002342 C405.65624207 35.29007957 405.66231476 36.14013573 405.66857147 37.01595116 C405.59901103 42.83384105 405.59901103 42.83384105 404.15038782 45.10173094 C401.28477896 47.02726265 398.91440006 46.75370337 395.48505306 46.75504684 C394.78995751 46.75940717 394.09486196 46.76376749 393.37870291 46.76825994 C391.03202092 46.77927373 388.68591946 46.76876617 386.33924103 46.75847435 C384.64690602 46.7619285 382.95457326 46.76669142 381.26224524 46.77265608 C376.59817849 46.78522902 371.93429489 46.77896725 367.27022731 46.76969743 C362.24564208 46.76293298 357.2210892 46.77337515 352.19651031 46.78163719 C342.34825421 46.79500435 332.50006655 46.79208362 322.65180772 46.78339927 C314.65131754 46.77663522 306.6508466 46.77570045 298.65035439 46.77897072 C297.51344019 46.77943042 296.376526 46.77989012 295.20515986 46.78036375 C292.89584592 46.78132288 290.58653198 46.78229552 288.27721805 46.78328152 C266.6032962 46.79184405 244.92941236 46.78198755 223.25549675 46.76588042 C204.63988356 46.75247466 186.02432647 46.7548058 167.40871429 46.7686367 C145.81293661 46.78467418 124.21719228 46.79102191 102.62140948 46.78179991 C100.32070419 46.78084422 98.01999889 46.77990111 95.71929359 46.77897072 C94.02111536 46.77827648 94.02111536 46.77827648 92.2886305 46.77756821 C84.29302041 46.77497295 76.29743139 46.7793608 68.30182457 46.78640938 C58.56471627 46.79480417 48.82768057 46.79258689 39.09058063 46.77656715 C34.11824208 46.76865738 29.14602477 46.76563864 24.17368698 46.7755146 C19.62836129 46.78440623 15.08327004 46.77962085 10.53796584 46.76358195 C8.88729298 46.76021054 7.23660059 46.76198058 5.58594012 46.76920931 C3.35452872 46.77823721 1.12393695 46.7690735 -1.10743046 46.75504684 C-2.35052748 46.75455979 -3.59362451 46.75407273 -4.87439114 46.75357091 C-5.82277054 46.62947524 -6.77114995 46.50537957 -7.74826813 46.37752342 C-10.37827012 42.43252043 -10.05395933 39.01946328 -10.04904938 34.44002342 C-10.0533345 33.56354149 -10.05761963 32.68705956 -10.06203461 31.78401756 C-10.06777609 29.93140591 -10.0682795 28.07877171 -10.06394196 26.22615623 C-10.06078002 23.38820141 -10.08424973 20.55128699 -10.10959625 17.71346092 C-10.11186903 15.91398307 -10.11257284 14.11450242 -10.11154938 12.31502342 C-10.12075912 11.46496727 -10.12996887 10.61491112 -10.1394577 9.73909569 C-10.09361524 3.9181031 -10.09361524 3.9181031 -8.64676523 1.6533159 C-5.78539142 -0.26953096 -3.42468615 0.00134552 0 0 Z " fill="#1976D2" transform="translate(756.7482681274414,512.6224765777588)"/>
<path d="M0 0 C0.33 0 0.66 0 1 0 C1 149.49 1 298.98 1 453 C0.67 453 0.34 453 0 453 C-0.00423194 452.41067247 -0.00846388 451.82134495 -0.01282406 451.21415901 C-0.11702367 436.74276834 -0.22577701 422.27141657 -0.33933926 407.80009651 C-0.39415644 400.80131559 -0.44754178 393.8025297 -0.49731445 386.80371094 C-0.54550529 380.02793138 -0.59800595 373.25219532 -0.65294075 366.47646713 C-0.6730539 363.91342081 -0.69181064 361.3503634 -0.70907402 358.7872963 C-0.80630486 344.49784837 -1.04584596 330.23990849 -1.74830532 315.9655323 C-1.79507443 314.9467745 -1.84184355 313.9280167 -1.89002991 312.87838745 C-1.93514741 311.98144606 -1.98026491 311.08450466 -2.02674961 310.16038322 C-2 308 -2 308 -1 306 C-0.9073259 304.43769323 -0.87807644 302.87143335 -0.87974548 301.30638123 C-0.87837113 300.31028178 -0.87699678 299.31418234 -0.87558079 298.28789806 C-0.87917575 297.18540879 -0.88277071 296.08291952 -0.88647461 294.94702148 C-0.88632575 293.78194974 -0.88617689 292.61687799 -0.88602352 291.41650105 C-0.8865998 288.17210075 -0.8916778 284.92774243 -0.89859343 281.68335056 C-0.90495092 278.18744166 -0.90553537 274.69153147 -0.9067688 271.19561768 C-0.90966068 265.13116878 -0.91610936 259.066732 -0.92483521 253.00228882 C-0.93738508 244.21445616 -0.94346557 235.426628 -0.94776857 226.63878787 C-0.95484427 212.35619357 -0.96564871 198.0736049 -0.97949219 183.79101562 C-0.98032 182.93557116 -0.98114781 182.0801267 -0.98200071 181.19875968 C-0.98873741 174.26674424 -0.99565485 167.334729 -1.00260353 160.40271378 C-1.00865085 154.36678322 -1.01463354 148.3308526 -1.02050781 142.29492188 C-1.02133594 141.44536985 -1.02216407 140.59581783 -1.02301729 139.72052181 C-1.03674476 125.51159731 -1.04648332 111.30267272 -1.05341816 97.09374332 C-1.05788129 88.33992134 -1.0658838 79.58611647 -1.07856297 70.83230245 C-1.08704517 64.81723504 -1.09189236 58.80217153 -1.09398818 52.78709853 C-1.09532184 49.32568941 -1.09825488 45.86430242 -1.10574722 42.4029007 C-1.13317108 28.23263739 -1.0362795 14.1368322 0 0 Z " fill="#919497" transform="translate(706,203)"/>
<path d="M0 0 C0.33 0 0.66 0 1 0 C2.04827231 10.6244499 2.13019632 21.15071034 2.09765625 31.81518555 C2.09573311 33.6794989 2.09427118 35.54381278 2.0932312 37.40812683 C2.09008836 41.39940556 2.08384719 45.39066273 2.07516479 49.38193321 C2.06154405 55.70984607 2.05572726 62.03775198 2.05102539 68.36567688 C2.03902333 82.94538135 2.01699634 97.52506734 1.99479675 112.10475922 C1.97455113 125.46343557 1.95649315 138.82210553 1.94658184 152.18079406 C1.94163867 158.45383284 1.93183814 164.72683846 1.91815186 170.99986398 C1.91061928 174.92417486 1.90736216 178.84848139 1.9051857 182.77279854 C1.9033355 184.57292831 1.89977948 186.37305739 1.89425278 188.17317963 C1.8655937 197.82312329 2.0176203 207.4116994 2.68700314 217.04164094 C3.02751658 222.14865029 2.81111478 227.00809595 2.26660156 232.08642578 C1.75373948 237.69127572 1.85632667 243.31371689 1.875 248.9375 C1.87113281 250.12923828 1.86726563 251.32097656 1.86328125 252.54882812 C1.86521484 254.27069336 1.86521484 254.27069336 1.8671875 256.02734375 C1.86831543 257.05593506 1.86944336 258.08452637 1.87060547 259.14428711 C1.9197278 261.96068755 1.9197278 261.96068755 2.53564453 264.50561523 C3.08435053 267.45310692 2.86347505 269.8995367 2.5625 272.8828125 C1.8179954 282.11514673 1.92723212 291.31509805 1.98168945 300.57196045 C2.12547965 326.51027331 1.84421336 352.43943143 1.5 378.375 C1.48797546 379.28633446 1.47595093 380.19766891 1.46356201 381.13661957 C1.3145253 392.42449094 1.16027211 403.71228252 1 415 C0.67 415 0.34 415 0 415 C0 278.05 0 141.1 0 0 Z " fill="#95989B" transform="translate(1202,203)"/>
<path d="M0 0 C0.66 0 1.32 0 2 0 C2.99 0 3.98 0 5 0 C5.14515677 3.10367497 5.23400853 6.20648027 5.3125 9.3125 C5.3753418 10.63411133 5.3753418 10.63411133 5.43945312 11.98242188 C5.48570999 14.41553278 5.47162825 16.61166302 5 19 C2.17873516 21.53202593 0.62701313 21.93729869 -3.125 22.3125 C-6 22 -6 22 -9 20 C-9 19.01 -9 18.02 -9 17 C-8.443125 17.33 -7.88625 17.66 -7.3125 18 C-4.69715478 19.1309601 -2.8193354 19.15662974 0 19 C0.33 17.68 0.66 16.36 1 15 C0.0925 15.226875 -0.815 15.45375 -1.75 15.6875 C-5 16 -5 16 -7.17578125 14.83203125 C-9 13 -9 13 -9.49609375 10.625 C-9.47675781 9.75875 -9.45742188 8.8925 -9.4375 8 C-9.43621094 7.13375 -9.43492187 6.2675 -9.43359375 5.375 C-8.41278717 -0.21644505 -5.07072953 -0.32366359 0 0 Z " fill="#271A21" transform="translate(961,247)"/>
<path d="M0 0 C3.62117251 0.526716 4.33126221 0.69795151 6.4375 3.5 C7.30422198 7.73991022 7.13819294 11.39506113 4.8125 15.0625 C1.68849332 16.95334615 0.02761393 17.17314636 -3.5625 16.5 C-6.43045763 13.93393265 -7.42921285 12.29972291 -8.0625 8.5 C-7.18010721 3.20564326 -5.40516164 0.75861918 0 0 Z " fill="#2A2B36" transform="translate(942.5625,246.5)"/>
<path d="M0 0 C0.33 0 0.66 0 1 0 C1 49.5 1 99 1 150 C0.67 150 0.34 150 0 150 C-0.00423194 149.41067247 -0.00846388 148.82134495 -0.01282406 148.21415901 C-0.11702367 133.74276834 -0.22577701 119.27141657 -0.33933926 104.80009651 C-0.39415644 97.80131559 -0.44754178 90.8025297 -0.49731445 83.80371094 C-0.54550529 77.02793138 -0.59800595 70.25219532 -0.65294075 63.47646713 C-0.6730539 60.91342081 -0.69181064 58.3503634 -0.70907402 55.7872963 C-0.73382368 52.14998383 -0.76273343 48.51274441 -0.79467773 44.87548828 C-0.80949267 43.14600291 -0.80949267 43.14600291 -0.8246069 41.38157845 C-0.89211727 35.45338932 -1.04305983 29.53925773 -1.3130188 23.61663818 C-1.36714211 22.42562437 -1.42126543 21.23461056 -1.47702885 20.00750542 C-1.58594641 17.74752505 -1.70507809 15.48800528 -1.83619595 13.22920418 C-1.88618772 12.22011435 -1.93617949 11.21102451 -1.98768616 10.1713562 C-2.03804048 9.29012526 -2.08839479 8.40889431 -2.140275 7.5009594 C-1.98052249 4.65273605 -1.1852699 2.5780998 0 0 Z " fill="#A1A4A8" transform="translate(706,506)"/>
<path d="M0 0 C1.32 0 2.64 0 4 0 C4.33 1.32 4.66 2.64 5 4 C5.66 2.35 6.32 0.7 7 -1 C7.99 -1 8.98 -1 10 -1 C10.33 0.65 10.66 2.3 11 4 C12.32 2.35 13.64 0.7 15 -1 C14.44894091 2.9492568 13.61064629 6.34920174 12 10 C11.34 10 10.68 10 10 10 C9.67 8.35 9.34 6.7 9 5 C8.67 5 8.34 5 8 5 C7.67 6.65 7.34 8.3 7 10 C5.0625 9.6875 5.0625 9.6875 3 9 C2.67 8.01 2.34 7.02 2 6 C1.443125 6.680625 0.88625 7.36125 0.3125 8.0625 C-0.450625 8.701875 -1.21375 9.34125 -2 10 C-4.75 9.75 -4.75 9.75 -7 9 C-7 8.01 -7 7.02 -7 6 C-5.68 6.66 -4.36 7.32 -3 8 C-3 7.34 -3 6.68 -3 6 C-5.475 5.01 -5.475 5.01 -8 4 C-8 2.68 -8 1.36 -8 0 C-5.13303368 -1.43348316 -3.10697549 -0.55925559 0 0 Z " fill="#B5C4CE" transform="translate(808,444)"/>
<path d="M0 0 C1.875 1.0625 1.875 1.0625 3 3 C3.63316583 8.90954774 3.63316583 8.90954774 1.875 11.9375 C-0.88980433 13.50422245 -2.88188517 13.38976435 -6 13 C-7.875 11.9375 -7.875 11.9375 -9 10 C-9.63316583 4.09045226 -9.63316583 4.09045226 -7.875 1.0625 C-5.11019567 -0.50422245 -3.11811483 -0.38976435 0 0 Z " fill="#EAF0F6" transform="translate(946,528)"/>
<path d="M0 0 C8.75 -0.125 8.75 -0.125 11 1 C11.125 3.875 11.125 3.875 11 7 C10.34 7.66 9.68 8.32 9 9 C9.495 9.61875 9.99 10.2375 10.5 10.875 C12 13 12 13 12 15 C11.34 15 10.68 15 10 15 C9.38125 14.030625 8.7625 13.06125 8.125 12.0625 C6.34963648 8.89459901 6.34963648 8.89459901 3.75 8.125 C2.88375 8.063125 2.88375 8.063125 2 8 C2 10.31 2 12.62 2 15 C1.34 15 0.68 15 0 15 C0 10.05 0 5.1 0 0 Z " fill="#412541" transform="translate(956,586)"/>
<path d="M0 0 C8.5 -0.25 8.5 -0.25 13 2 C13 6.62 13 11.24 13 16 C12.01 16 11.02 16 10 16 C10 11.71 10 7.42 10 3 C8.02 3 6.04 3 4 3 C3.67 7.29 3.34 11.58 3 16 C2.01 16 1.02 16 0 16 C0 10.72 0 5.44 0 0 Z " fill="#32394A" transform="translate(976,247)"/>
<path d="M0 0 C0.66 0 1.32 0 2 0 C2 4.95 2 9.9 2 15 C-0.31 15 -2.62 15 -5 15 C-7 13 -7 13 -7.25 9.5 C-7 6 -7 6 -5 4 C-2.375 4.375 -2.375 4.375 0 5 C0 3.35 0 1.7 0 0 Z " fill="#6B7484" transform="translate(850,439)"/>
<path d="M0 0 C2.375 0.75 2.375 0.75 3.375 1.75 C3.578125 3.74609375 3.578125 3.74609375 3.625 6.1875 C3.66367187 7.39212891 3.66367187 7.39212891 3.703125 8.62109375 C3.59484375 9.32363281 3.4865625 10.02617188 3.375 10.75 C0.375 12.75 0.375 12.75 -1.6875 12.5 C-3.625 11.75 -3.625 11.75 -5.625 9.75 C-6.17686722 3.67946058 -6.17686722 3.67946058 -4.4375 0.75 C-2.625 -0.25 -2.625 -0.25 0 0 Z " fill="#DCE2E5" transform="translate(947.625,587.25)"/>
<path d="M0 0 C0.33 0 0.66 0 1 0 C1 4.29 1 8.58 1 13 C-1 11 -1 11 -1.125 8.375 C-1.08375 7.59125 -1.0425 6.8075 -1 6 C-2.98 6 -4.96 6 -7 6 C-7 6.66 -7 7.32 -7 8 C-6.01 8 -5.02 8 -4 8 C-4 8.99 -4 9.98 -4 11 C-6.875 11.125 -6.875 11.125 -10 11 C-12 9 -12 9 -12.25 6.5 C-12 4 -12 4 -10 2 C-7.0625 1.875 -7.0625 1.875 -4 2 C-3.01 2 -2.02 2 -1 2 C-0.67 1.34 -0.34 0.68 0 0 Z " fill="#E8EFF3" transform="translate(906,644)"/>
<path d="M0 0 C3.29714793 0.32971479 4.6226839 0.6226839 7 3 C7.33661952 6.1642235 7.49943411 8.18513382 5.8125 10.9375 C4 12 4 12 1.375 11.75 C-1 11 -1 11 -2 10 C-2.27314815 4.26388889 -2.27314815 4.26388889 -2 2 C-1.34 1.34 -0.68 0.68 0 0 Z " fill="#93A7B8" transform="translate(940,249)"/>
<path d="M0 0 C0.99 0 1.98 0 3 0 C3 6.6 3 13.2 3 20 C6.63 20 10.26 20 14 20 C14 20.66 14 21.32 14 22 C9.38 22 4.76 22 0 22 C0 14.74 0 7.48 0 0 Z " fill="#322E28" transform="translate(919,241)"/>
<path d="M0 0 C5.56818182 0.56818182 5.56818182 0.56818182 7 2 C7.1875 5.4375 7.1875 5.4375 7 9 C5 11 5 11 2.5 11.25 C0 11 0 11 -2 9 C-2.25 5.5 -2.25 5.5 -2 2 C-1.34 1.34 -0.68 0.68 0 0 Z " fill="#6D6D75" transform="translate(827,443)"/>
<path d="M0 0 C7.75 -0.125 7.75 -0.125 10 1 C10.04254356 2.99954746 10.04080783 5.00041636 10 7 C9 8 9 8 7.15234375 8.09765625 C5.1015625 8.06510417 3.05078125 8.03255208 1 8 C1 10.31 1 12.62 1 15 C0.67 15 0.34 15 0 15 C0 10.05 0 5.1 0 0 Z " fill="#606973" transform="translate(766,439)"/>
<path d="M0 0 C4.55555556 0.55555556 4.55555556 0.55555556 6 2 C6.27314815 7.73611111 6.27314815 7.73611111 6 10 C5.34 10.66 4.68 11.32 4 12 C-0.55555556 11.44444444 -0.55555556 11.44444444 -2 10 C-2.27314815 4.26388889 -2.27314815 4.26388889 -2 2 C-1.34 1.34 -0.68 0.68 0 0 Z " fill="#95A6B4" transform="translate(957,249)"/>
<path d="M0 0 C0.66 1.32 1.32 2.64 2 4 C0.700625 3.814375 -0.59875 3.62875 -1.9375 3.4375 C-4.08575543 3.1018371 -4.08575543 3.1018371 -6 3 C-7.28322547 4.0595877 -7.28322547 4.0595877 -7.125 6.5 C-7.28322547 8.9404123 -7.28322547 8.9404123 -6 10 C-4.33382885 10.04063832 -2.66611905 10.042721 -1 10 C-0.67 9.34 -0.34 8.68 0 8 C-1.32 8 -2.64 8 -4 8 C-4 7.34 -4 6.68 -4 6 C-2.02 6 -0.04 6 2 6 C2 7.98 2 9.96 2 12 C-1.04983996 13.52491998 -3.6423369 13.23562548 -7 13 C-8.9375 11.9375 -8.9375 11.9375 -10 10 C-10.36528977 6.5906288 -10.6140629 4.11976176 -8.9375 1.0625 C-5.98831309 -0.55479605 -3.29132441 -0.18630138 0 0 Z " fill="#DEE8F4" transform="translate(961,528)"/>
<path d="M0 0 C4.17799643 2.08899822 4.92391901 3.05544612 7 7 C7.33 4.69 7.66 2.38 8 0 C8.66 0 9.32 0 10 0 C10 4.29 10 8.58 10 13 C5.82200357 10.91100178 5.07608099 9.94455388 3 6 C2.67 8.31 2.34 10.62 2 13 C1.34 13 0.68 13 0 13 C0 8.71 0 4.42 0 0 Z " fill="#DFE9F1" transform="translate(971,528)"/>
<path d="M0 0 C6.0546875 -0.1953125 6.0546875 -0.1953125 8 0 C8.66 0.66 9.32 1.32 10 2 C9.625 4.125 9.625 4.125 9 6 C6.69 6.66 4.38 7.32 2 8 C1.67 9.65 1.34 11.3 1 13 C0.67 13 0.34 13 0 13 C0 8.71 0 4.42 0 0 Z " fill="#3986D6" transform="translate(939,644)"/>
<path d="M0 0 C2.31 0.33 4.62 0.66 7 1 C7 4.3 7 7.6 7 11 C3.625 11.125 3.625 11.125 0 11 C-0.66 10.34 -1.32 9.68 -2 9 C-2 8.01 -2 7.02 -2 6 C0.31 5.01 2.62 4.02 5 3 C3.02 3 1.04 3 -1 3 C-0.67 2.01 -0.34 1.02 0 0 Z " fill="#81848C" transform="translate(780,443)"/>
<path d="M0 0 C1.4540625 0.0309375 1.4540625 0.0309375 2.9375 0.0625 C4.30373674 2.79497348 4.065926 5.04448902 3.9375 8.0625 C2.9375 9.0625 2.9375 9.0625 -0.125 9.125 C-1.094375 9.104375 -2.06375 9.08375 -3.0625 9.0625 C-4.42873674 6.33002652 -4.190926 4.08051098 -4.0625 1.0625 C-3.0625 0.0625 -3.0625 0.0625 0 0 Z " fill="#247CD5" transform="translate(943.0625,529.9375)"/>
<path d="M0 0 C0.99 0.495 0.99 0.495 2 1 C2.625 3.0625 2.625 3.0625 3 5 C3.66 3.35 4.32 1.7 5 0 C5.99 0 6.98 0 8 0 C8.33 1.65 8.66 3.3 9 5 C10.32 3.35 11.64 1.7 13 0 C12.44894091 3.9492568 11.61064629 7.34920174 10 11 C9.34 11 8.68 11 8 11 C7.67 9.35 7.34 7.7 7 6 C6.67 6 6.34 6 6 6 C5.67 7.65 5.34 9.3 5 11 C3.68 10.67 2.36 10.34 1 10 C0.67 6.7 0.34 3.4 0 0 Z " fill="#74717B" transform="translate(810,443)"/>
<path d="M0 0 C2.4375 0.8125 2.4375 0.8125 4.4375 2.8125 C4.4375 3.8025 4.4375 4.7925 4.4375 5.8125 C1.7975 5.8125 -0.8425 5.8125 -3.5625 5.8125 C-2.5725 7.2975 -2.5725 7.2975 -1.5625 8.8125 C0.0875 8.1525 1.7375 7.4925 3.4375 6.8125 C3.4375 7.8025 3.4375 8.7925 3.4375 9.8125 C-2.00986842 11.14407895 -2.00986842 11.14407895 -4.4375 9.6875 C-5.94207373 7.17987712 -5.9943188 5.69129197 -5.5625 2.8125 C-3.86282344 0.12880016 -3.19877434 -0.23405666 0 0 Z " fill="#5D6069" transform="translate(852.5625,343.1875)"/>
<path d="M0 0 C1.99954746 -0.04254356 4.00041636 -0.04080783 6 0 C7 1 7 1 7.125 4.5 C7 8 7 8 6 9 C4.00041636 9.04080783 1.99954746 9.04254356 0 9 C0 6.03 0 3.06 0 0 Z " fill="#E9F0F2" transform="translate(1024,646)"/>
<path d="M0 0 C3 1 3 1 4.203125 2.9609375 C4.54859375 3.75757813 4.8940625 4.55421875 5.25 5.375 C5.60578125 6.16648437 5.9615625 6.95796875 6.328125 7.7734375 C7 10 7 10 6 13 C5.34 12.01 4.68 11.02 4 10 C1.41619823 9.74969023 1.41619823 9.74969023 -1 10 C-1.33 10.99 -1.66 11.98 -2 13 C-2.66 13 -3.32 13 -4 13 C-3.52140759 11.39566191 -3.04210442 9.79153584 -2.5625 8.1875 C-2.29566406 7.29417969 -2.02882813 6.40085937 -1.75390625 5.48046875 C-1.19612127 3.64526945 -0.60655425 1.81966274 0 0 Z " fill="#86AADF" transform="translate(1013,644)"/>
<path d="M0 0 C0 0.99 0 1.98 0 3 C-0.33 2.67 -0.66 2.34 -1 2 C-4 1.83333333 -4 1.83333333 -7 2 C-8.29633621 3.06645115 -8.29633621 3.06645115 -8.0625 5.5625 C-8.041875 6.366875 -8.02125 7.17125 -8 8 C-5.69 8.66 -3.38 9.32 -1 10 C-1 9.01 -1 8.02 -1 7 C-1.99 7 -2.98 7 -4 7 C-4 6.34 -4 5.68 -4 5 C-2.35 5 -0.7 5 1 5 C1 6.98 1 8.96 1 11 C-5.22680412 12.31720856 -5.22680412 12.31720856 -8.4375 11 C-10 9 -10 9 -10.5 5.5 C-10 2 -10 2 -8.375 0 C-5.2448901 -1.31794101 -3.24216891 -0.81054223 0 0 Z " fill="#4685D5" transform="translate(903,645)"/>
<path d="M0 0 C3.125 0.375 3.125 0.375 6 1 C6.33 2.65 6.66 4.3 7 6 C4.36 6 1.72 6 -1 6 C0.83333333 9.16666667 0.83333333 9.16666667 4 11 C-0.875 10.125 -0.875 10.125 -2 9 C-2.1875 5.5625 -2.1875 5.5625 -2 2 C-1.34 1.34 -0.68 0.68 0 0 Z " fill="#5B5E68" transform="translate(792,343)"/>
<path d="M0 0 C0.33 0 0.66 0 1 0 C1.14515677 3.10367497 1.23400853 6.20648027 1.3125 9.3125 C1.3753418 10.63411133 1.3753418 10.63411133 1.43945312 11.98242188 C1.48570999 14.41553278 1.47162825 16.61166302 1 19 C-1.82126484 21.53202593 -3.37298687 21.93729869 -7.125 22.3125 C-10 22 -10 22 -13 20 C-13 19.01 -13 18.02 -13 17 C-12.443125 17.33 -11.88625 17.66 -11.3125 18 C-8.58797975 19.17817092 -6.93677726 19.45181189 -4 19 C-0.47207743 15.62620997 -0.46527103 11.86805012 -0.3125 7.25 C-0.27833984 6.55261719 -0.24417969 5.85523438 -0.20898438 5.13671875 C-0.12691705 3.42502892 -0.06177081 1.7125424 0 0 Z " fill="#35485F" transform="translate(965,247)"/>
<path d="M0 0 C3.375 -0.125 3.375 -0.125 7 0 C9 2 9 2 9.1953125 4.1640625 C9.17210937 4.97617187 9.14890625 5.78828125 9.125 6.625 C9.10695313 7.44226563 9.08890625 8.25953125 9.0703125 9.1015625 C9.03550781 10.04128906 9.03550781 10.04128906 9 11 C8.34 11 7.68 11 7 11 C7 8.03 7 5.06 7 2 C5.68 2.33 4.36 2.66 3 3 C2.67 5.64 2.34 8.28 2 11 C1.34 11 0.68 11 0 11 C0 7.37 0 3.74 0 0 Z " fill="#686975" transform="translate(808,343)"/>
<path d="M0 0 C1.99954746 -0.04254356 4.00041636 -0.04080783 6 0 C7 1 7 1 7.09765625 3.28515625 C7.08605469 4.20167969 7.07445312 5.11820312 7.0625 6.0625 C7.05347656 6.98160156 7.04445313 7.90070313 7.03515625 8.84765625 C7.02355469 9.55792969 7.01195312 10.26820313 7 11 C6.01 10.34 5.02 9.68 4 9 C4.33 8.01 4.66 7.02 5 6 C3.68 6.33 2.36 6.66 1 7 C1 7.66 1 8.32 1 9 C1.66 9.66 2.32 10.32 3 11 C1.35 10.67 -0.3 10.34 -2 10 C-2 8.68 -2 7.36 -2 6 C0.31 5.34 2.62 4.68 5 4 C4.67 3.34 4.34 2.68 4 2 C2.35 2.33 0.7 2.66 -1 3 C-0.67 2.01 -0.34 1.02 0 0 Z " fill="#5E616F" transform="translate(821,343)"/>
<path d="M0 0 C0.66 0 1.32 0 2 0 C2 0.66 2 1.32 2 2 C2.66 2 3.32 2 4 2 C3.67 6.62 3.34 11.24 3 16 C2.01 16 1.02 16 0 16 C0 10.72 0 5.44 0 0 Z " fill="#2D2C3E" transform="translate(976,247)"/>
<path d="M0 0 C0.99 0 1.98 0 3 0 C3 5.28 3 10.56 3 16 C2.01 16 1.02 16 0 16 C0 10.72 0 5.44 0 0 Z " fill="#362F36" transform="translate(969,247)"/>
<path d="M0 0 C2.97 0 5.94 0 9 0 C9 0.33 9 0.66 9 1 C6.69 1 4.38 1 2 1 C2 2.32 2 3.64 2 5 C4.31 5 6.62 5 9 5 C9 5.33 9 5.66 9 6 C6.69 6 4.38 6 2 6 C2 7.98 2 9.96 2 12 C4.31 12 6.62 12 9 12 C9 12.33 9 12.66 9 13 C6.03 13 3.06 13 0 13 C0 8.71 0 4.42 0 0 Z " fill="#377DD5" transform="translate(998,644)"/>
<path d="M0 0 C1.65 0 3.3 0 5 0 C5 0.99 5 1.98 5 3 C3.68 2.67 2.36 2.34 1 2 C1 2.66 1 3.32 1 4 C2.98 4.66 4.96 5.32 7 6 C6.125 9.875 6.125 9.875 5 11 C3.33382885 11.04063832 1.66611905 11.042721 0 11 C-0.33 9.68 -0.66 8.36 -1 7 C1.475 7.99 1.475 7.99 4 9 C4 8.34 4 7.68 4 7 C1.525 6.01 1.525 6.01 -1 5 C-0.67 3.35 -0.34 1.7 0 0 Z " fill="#626672" transform="translate(781,343)"/>
<path d="M0 0 C2.64752004 2.57784846 4.94432065 4.91648098 7 8 C7.33 5.36 7.66 2.72 8 0 C8.33 0 8.66 0 9 0 C9 4.29 9 8.58 9 13 C6.35247996 10.42215154 4.05567935 8.08351902 2 5 C1.67 7.64 1.34 10.28 1 13 C0.67 13 0.34 13 0 13 C0 8.71 0 4.42 0 0 Z " fill="#2B80D6" transform="translate(908,644)"/>
<path d="M0 0 C1.65 0 3.3 0 5 0 C5 0.99 5 1.98 5 3 C3.68 2.67 2.36 2.34 1 2 C1 2.66 1 3.32 1 4 C2.98 4.66 4.96 5.32 7 6 C6.67 7.32 6.34 8.64 6 10 C1.25 11.125 1.25 11.125 -1 10 C-0.67 9.01 -0.34 8.02 0 7 C1.32 7.66 2.64 8.32 4 9 C4 8.34 4 7.68 4 7 C1.525 6.01 1.525 6.01 -1 5 C-0.67 3.35 -0.34 1.7 0 0 Z " fill="#6D6F79" transform="translate(791,443)"/>
<path d="M0 0 C6.54530874 -0.37048917 6.54530874 -0.37048917 8.6875 1.375 C9.120625 1.91125 9.55375 2.4475 10 3 C12.09989652 4.17574711 12.09989652 4.17574711 14 5 C13.67 5.99 13.34 6.98 13 8 C12.401875 7.649375 11.80375 7.29875 11.1875 6.9375 C8.89186786 5.66695302 8.89186786 5.66695302 6 7 C5.67 6.01 5.34 5.02 5 4 C2.49552484 2.78130071 2.49552484 2.78130071 0 2 C0 1.34 0 0.68 0 0 Z " fill="#BDC9D3" transform="translate(792,445)"/>
<path d="M0 0 C2.125 0.375 2.125 0.375 4 1 C4 3.31 4 5.62 4 8 C2.33388095 8.042721 0.66617115 8.04063832 -1 8 C-2 7 -2 7 -2.1875 4.5625 C-2 2 -2 2 0 0 Z " fill="#B7C5D2" transform="translate(828,444)"/>
<path d="M0 0 C1.98 0 3.96 0 6 0 C6.38218767 1.65614657 6.71395102 3.32457024 7 5 C6 6 6 6 2.9375 6.0625 C1.4834375 6.0315625 1.4834375 6.0315625 0 6 C0 4.02 0 2.04 0 0 Z " fill="#D5E0E3" transform="translate(958,587)"/>
<path d="M0 0 C3.3 0 6.6 0 10 0 C8.68 0.33 7.36 0.66 6 1 C6 4.96 6 8.92 6 13 C5.34 13 4.68 13 4 13 C4 9.37 4 5.74 4 2 C2.68 2 1.36 2 0 2 C0 1.34 0 0.68 0 0 Z " fill="#4987D7" transform="translate(986,644)"/>
<path d="M0 0 C0.66 0 1.32 0 2 0 C2 4.29 2 8.58 2 13 C-1.99996286 11.66667905 -2.83782337 9.5042173 -5 6 C-4.67 5.34 -4.34 4.68 -4 4 C-3.01 5.32 -2.02 6.64 -1 8 C-0.67 5.36 -0.34 2.72 0 0 Z " fill="#4F8FDB" transform="translate(970,644)"/>
<path d="M0 0 C0.66 0 1.32 0 2 0 C2 3.63 2 7.26 2 11 C3.98 11 5.96 11 8 11 C8 11.66 8 12.32 8 13 C5.36 13 2.72 13 0 13 C0 8.71 0 4.42 0 0 Z " fill="#F0F0F5" transform="translate(927,528)"/>
<path d="M0 0 C0.66 0.33 1.32 0.66 2 1 C2.48275862 7.27586207 2.48275862 7.27586207 0.375 10.4375 C-2.602598 12.39644605 -4.50355037 12.31785906 -8 12 C-8.33 11.34 -8.66 10.68 -9 10 C-7.865625 9.690625 -6.73125 9.38125 -5.5625 9.0625 C-2.21224901 8.37075469 -2.21224901 8.37075469 -1 7 C-0.63239269 4.67182036 -0.29758419 2.3381615 0 0 Z " fill="#262329" transform="translate(947,251)"/>
<path d="M0 0 C1.32 0.66 2.64 1.32 4 2 C4 3.98 4 5.96 4 8 C2.35 8 0.7 8 -1 8 C-1.04241723 5.66705225 -1.04092937 3.33297433 -1 1 C-0.67 0.67 -0.34 0.34 0 0 Z " fill="#BEC9D0" transform="translate(846,444)"/>
<path d="M0 0 C0.66 0 1.32 0 2 0 C2 0.99 2 1.98 2 3 C3.98 3.66 5.96 4.32 8 5 C8 6.32 8 7.64 8 9 C6.02 9.33 4.04 9.66 2 10 C1.34 8.68 0.68 7.36 0 6 C2.475 6.99 2.475 6.99 5 8 C5 7.34 5 6.68 5 6 C2.525 5.01 2.525 5.01 0 4 C0 2.68 0 1.36 0 0 Z " fill="#6A6B75" transform="translate(800,444)"/>
<path d="M0 0 C0.33 1.32 0.66 2.64 1 4 C-1 6 -1 6 -3.5 6.3125 C-4.325 6.209375 -5.15 6.10625 -6 6 C-6.66 5.01 -7.32 4.02 -8 3 C-5.36 2.01 -2.72 1.02 0 0 Z " fill="#8D9FAE" transform="translate(962,261)"/>
<path d="M0 0 C1.98 0 3.96 0 6 0 C6 1.65 6 3.3 6 5 C4.02 5 2.04 5 0 5 C0 3.35 0 1.7 0 0 Z " fill="#C2CCD6" transform="translate(768,441)"/>
<path d="M0 0 C1.98 0 3.96 0 6 0 C6 1.98 6 3.96 6 6 C3.69 6.33 1.38 6.66 -1 7 C0.65 5.35 2.3 3.7 4 2 C2.68 2 1.36 2 0 2 C0 1.34 0 0.68 0 0 Z " fill="#E6EFF8" transform="translate(957,534)"/>
<path d="M0 0 C2.64 0 5.28 0 8 0 C7.67 1.32 7.34 2.64 7 4 C5.35 4 3.7 4 2 4 C1.34 2.68 0.68 1.36 0 0 Z " fill="#91A1B2" transform="translate(791,349)"/>
<path d="M0 0 C0.66 0.33 1.32 0.66 2 1 C1.74476126 2.62752231 1.47025506 4.25203196 1.1875 5.875 C1.03667969 6.77992188 0.88585937 7.68484375 0.73046875 8.6171875 C0 11 0 11 -3 13 C-3.08121924 11.39667209 -3.13929134 9.79215974 -3.1875 8.1875 C-3.22230469 7.29417969 -3.25710938 6.40085938 -3.29296875 5.48046875 C-2.95081002 2.58352485 -2.24606427 1.77444972 0 0 Z " fill="#4A4A51" transform="translate(955,247)"/>
<path d="M0 0 C0.33 0 0.66 0 1 0 C1.12375 1.11375 1.2475 2.2275 1.375 3.375 C1.6465813 7.03103677 1.6465813 7.03103677 4 9 C6.57061311 9.64767793 6.57061311 9.64767793 9 10 C8.34 10.66 7.68 11.32 7 12 C3.70285207 11.67028521 2.3773161 11.3773161 0 9 C-0.1953125 6.8359375 -0.1953125 6.8359375 -0.125 4.375 C-0.10695313 3.55773437 -0.08890625 2.74046875 -0.0703125 1.8984375 C-0.04710937 1.27195313 -0.02390625 0.64546875 0 0 Z " fill="#1B1E27" transform="translate(953,251)"/>
<path d="M0 0 C1.5625 1.8125 1.5625 1.8125 3 4 C2.67 4.99 2.34 5.98 2 7 C1.34 6.01 0.68 5.02 0 4 C-2.58380177 3.74969023 -2.58380177 3.74969023 -5 4 C-5.33 4.99 -5.66 5.98 -6 7 C-6.66 7 -7.32 7 -8 7 C-7.34 5.35 -6.68 3.7 -6 2 C-4.02 2 -2.04 2 0 2 C0 1.34 0 0.68 0 0 Z " fill="#3280D6" transform="translate(1017,650)"/>
<path d="M0 0 C2.31 0.33 4.62 0.66 7 1 C7 2.32 7 3.64 7 5 C6.38125 4.649375 5.7625 4.29875 5.125 3.9375 C4.42375 3.628125 3.7225 3.31875 3 3 C2.01 3.495 2.01 3.495 1 4 C0.67 2.68 0.34 1.36 0 0 Z " fill="#BDC6CC" transform="translate(788,448)"/>
<path d="M0 0 C1.65 0 3.3 0 5 0 C5 1.98 5 3.96 5 6 C4.01 6.33 3.02 6.66 2 7 C1.01 6.34 0.02 5.68 -1 5 C0.32 5 1.64 5 3 5 C3 4.01 3 3.02 3 2 C2.01 2 1.02 2 0 2 C0 1.34 0 0.68 0 0 Z " fill="#6792D6" transform="translate(899,650)"/>
<path d="M0 0 C1.98 0 3.96 0 6 0 C5.67 1.32 5.34 2.64 5 4 C3.35 4 1.7 4 0 4 C0 2.68 0 1.36 0 0 Z " fill="#EEECF1" transform="translate(941,646)"/>
<path d="M0 0 C5.41139241 -0.36075949 5.41139241 -0.36075949 7.9375 1.1875 C9 3 9 3 8.6875 5.6875 C8.460625 6.450625 8.23375 7.21375 8 8 C6 4.25 6 4.25 6 2 C4.35 2 2.7 2 1 2 C0.67 1.34 0.34 0.68 0 0 Z " fill="#DAEBF7" transform="translate(940,528)"/>
<path d="M0 0 C2.64 0 5.28 0 8 0 C7.67 0.99 7.34 1.98 7 3 C5 3 3 3 1 3 C0.67 2.01 0.34 1.02 0 0 Z " fill="#A2B5C6" transform="translate(849,349)"/>
<path d="M0 0 C0.99 0.33 1.98 0.66 3 1 C3 2.98 3 4.96 3 7 C2.01 7.33 1.02 7.66 0 8 C0 5.36 0 2.72 0 0 Z " fill="#7E9CB0" transform="translate(949,251)"/>
<path d="M0 0 C0.99 0.33 1.98 0.66 3 1 C2.34 4.96 1.68 8.92 1 13 C0.67 13 0.34 13 0 13 C0 8.71 0 4.42 0 0 Z " fill="#FDFCFC" transform="translate(971,528)"/>
<path d="M0 0 C1 3 1 3 -0.25 5.5625 C-2 8 -2 8 -5 10 C-5.66 9.34 -6.32 8.68 -7 8 C-5.824375 7.4121875 -5.824375 7.4121875 -4.625 6.8125 C-1.64843582 4.75725331 -1.01176437 3.40320742 0 0 Z " fill="#B6B9BD" transform="translate(1203,710)"/>
<path d="M0 0 C2.475 0.495 2.475 0.495 5 1 C4.67 1.99 4.34 2.98 4 4 C2.68 4 1.36 4 0 4 C0 2.68 0 1.36 0 0 Z " fill="#969DA5" transform="translate(802,443)"/>
<path d="M0 0 C1.32 0 2.64 0 4 0 C3.67 1.65 3.34 3.3 3 5 C1.68 4.34 0.36 3.68 -1 3 C-0.67 2.01 -0.34 1.02 0 0 Z " fill="#A1B0BD" transform="translate(822,349)"/>
<path d="M0 0 C1.32 0.66 2.64 1.32 4 2 C4 2.66 4 3.32 4 4 C2.02 4 0.04 4 -2 4 C-1.34 2.68 -0.68 1.36 0 0 Z " fill="#9CACBA" transform="translate(851,344)"/>
<path d="M0 0 C0.33 0 0.66 0 1 0 C1.05399736 1.45792884 1.09279177 2.91642712 1.125 4.375 C1.14820313 5.18710937 1.17140625 5.99921875 1.1953125 6.8359375 C1 9 1 9 -1 11 C-1 10.01 -1 9.02 -1 8 C-1.66 7.67 -2.32 7.34 -3 7 C-2.34 6.34 -1.68 5.68 -1 5 C-0.35232207 2.42938689 -0.35232207 2.42938689 0 0 Z " fill="#1D1619" transform="translate(964,253)"/>
<path d="M0 0 C0.99 0.33 1.98 0.66 3 1 C3 2.98 3 4.96 3 7 C2.01 7.33 1.02 7.66 0 8 C0 5.36 0 2.72 0 0 Z " fill="#595353" transform="translate(964,586)"/>
<path d="M0 0 C0.33 0.66 0.66 1.32 1 2 C1.66 2.33 2.32 2.66 3 3 C2.01 4.485 2.01 4.485 1 6 C0.01 6 -0.98 6 -2 6 C-2.33 4.68 -2.66 3.36 -3 2 C-2.01 2 -1.02 2 0 2 C0 1.34 0 0.68 0 0 Z " fill="#7B7A82" transform="translate(861,439)"/>
<path d="M0 0 C1.65 0 3.3 0 5 0 C5 0.99 5 1.98 5 3 C3.02 3 1.04 3 -1 3 C-0.67 2.01 -0.34 1.02 0 0 Z " fill="#9AABBB" transform="translate(792,345)"/>
</svg>
